<svg width="2140" height="2140" viewBox="0 0 2140 2140" fill="none" xmlns="http://www.w3.org/2000/svg">
<g filter="url(#filter0_d_306_3)">
<rect x="20" y="20" width="2100" height="2100" rx="1050" fill="white"/>
<path d="M1407.9 1567.8C1404.1 1567.8 1400.8 1566.2 1398 1563C1395.2 1559.8 1393.8 1554.8 1393.8 1548C1393.8 1544.2 1394.2 1540.3 1395 1536.3C1395.4 1534.3 1396.2 1530.4 1397.4 1524.6C1398.6 1518.8 1400 1512.9 1401.6 1506.9C1403.4 1499.5 1405.9 1491.1 1409.1 1481.7C1412.3 1472.1 1416.2 1462 1420.8 1451.4C1424.2 1443 1427.7 1435.1 1431.3 1427.7C1434.9 1420.3 1438.5 1413.1 1442.1 1406.1H1400.7C1398.5 1406.1 1397.4 1405.6 1397.4 1404.6C1397.4 1402.4 1399.6 1401.3 1404 1401.3H1444.8C1449.8 1392.3 1455 1383.8 1460.4 1375.8C1465.8 1367.8 1471.8 1360.3 1478.4 1353.3C1481.8 1349.3 1484.9 1346.5 1487.7 1344.9C1490.7 1343.3 1493.7 1342.2 1496.7 1341.6C1499.9 1340.8 1503.4 1340 1507.2 1339.2C1498 1350.4 1489.9 1361 1482.9 1371C1476.1 1380.8 1469.7 1390.9 1463.7 1401.3H1508.1C1510.5 1401.3 1511.7 1401.9 1511.7 1403.1C1511.7 1403.7 1511.1 1404.4 1509.9 1405.2C1508.9 1405.8 1507.3 1406.1 1505.1 1406.1H1461C1456.2 1414.5 1451.6 1423.4 1447.2 1432.8C1442.8 1442 1438.1 1452.1 1433.1 1463.1C1428.9 1472.3 1425.1 1482.2 1421.7 1492.8C1418.5 1503.2 1415.9 1512.8 1413.9 1521.6C1411.9 1530.4 1410.9 1536.7 1410.9 1540.5C1410.9 1549.7 1413.4 1554.3 1418.4 1554.3C1420.8 1554.3 1423.8 1553.1 1427.4 1550.7C1435.2 1545.9 1442.2 1540.9 1448.4 1535.7C1454.6 1530.7 1460.5 1525.4 1466.1 1519.8C1469.1 1517 1472.6 1513.4 1476.6 1509C1480.8 1504.6 1485 1500.1 1489.2 1495.5C1493.4 1490.9 1497.1 1486.8 1500.3 1483.2L1505.4 1477.5C1506 1476.9 1506.5 1476.6 1506.9 1476.6C1508.1 1476.6 1508.7 1477.4 1508.7 1479C1508.7 1480 1508.3 1481 1507.5 1482C1506.5 1483.6 1505.4 1485.1 1504.2 1486.5C1502.8 1487.9 1501.5 1489.4 1500.3 1491C1491.7 1501.6 1482.2 1512.3 1471.8 1523.1C1461.4 1533.9 1450.7 1543.8 1439.7 1552.8C1435.1 1556.4 1430.3 1559.8 1425.3 1563C1420.3 1566.2 1414.5 1567.8 1407.9 1567.8ZM1570.45 1383.9C1565.25 1383.9 1562.65 1381.4 1562.65 1376.4C1562.65 1373.4 1563.75 1370.9 1565.95 1368.9C1568.15 1366.7 1570.55 1365.6 1573.15 1365.6C1575.75 1365.6 1577.75 1366.5 1579.15 1368.3C1580.75 1370.1 1581.35 1372.3 1580.95 1374.9C1580.35 1377.5 1579.05 1379.7 1577.05 1381.5C1575.25 1383.1 1573.05 1383.9 1570.45 1383.9ZM1521.85 1515C1511.45 1515 1506.25 1508.5 1506.25 1495.5C1506.25 1492.7 1506.55 1489.5 1507.15 1485.9C1507.95 1481.7 1509.45 1476.7 1511.65 1470.9C1514.05 1464.9 1516.65 1459 1519.45 1453.2C1522.45 1447.2 1525.15 1442.1 1527.55 1437.9C1529.55 1434.7 1531.85 1430.9 1534.45 1426.5C1537.05 1422.1 1539.55 1418 1541.95 1414.2C1544.35 1410.4 1545.85 1407.9 1546.45 1406.7C1547.65 1404.1 1550.05 1402.1 1553.65 1400.7C1557.25 1399.1 1560.45 1398.3 1563.25 1398.3C1566.45 1398.3 1568.05 1399.2 1568.05 1401C1568.05 1402.2 1567.65 1403.3 1566.85 1404.3C1563.05 1410.5 1558.55 1417.7 1553.35 1425.9C1548.35 1434.1 1543.45 1442.5 1538.65 1451.1C1533.85 1459.7 1529.85 1467.9 1526.65 1475.7C1523.45 1483.5 1521.85 1490.2 1521.85 1495.8C1521.85 1498.8 1522.35 1501.2 1523.35 1503C1524.55 1504.8 1526.65 1505.7 1529.65 1505.7C1532.85 1505.7 1536.45 1504.2 1540.45 1501.2C1544.65 1498 1548.65 1494.5 1552.45 1490.7C1556.45 1486.7 1559.45 1483.6 1561.45 1481.4L1567.45 1475.1C1568.45 1474.1 1569.35 1473.1 1570.15 1472.1C1570.95 1470.9 1571.75 1469.8 1572.55 1468.8C1573.15 1468.2 1573.65 1467.9 1574.05 1467.9C1575.25 1467.9 1575.85 1468.8 1575.85 1470.6C1575.85 1471.6 1575.45 1472.5 1574.65 1473.3C1572.45 1476.1 1570.25 1478.8 1568.05 1481.4C1565.85 1484 1563.55 1486.6 1561.15 1489.2C1556.15 1495.2 1550.35 1501 1543.75 1506.6C1537.15 1512.2 1529.85 1515 1521.85 1515ZM1554.58 1619.7C1548.98 1619.7 1545.08 1617.6 1542.88 1613.4C1540.68 1609.2 1539.58 1603.9 1539.58 1597.5C1539.58 1593.5 1539.98 1589.1 1540.78 1584.3C1541.38 1579.7 1542.28 1575 1543.48 1570.2C1546.08 1559 1549.48 1547.9 1553.68 1536.9C1557.68 1525.9 1562.08 1515 1566.88 1504.2C1569.48 1498.4 1572.58 1491.6 1576.18 1483.8C1579.98 1475.8 1583.78 1467.9 1587.58 1460.1C1591.38 1452.1 1594.68 1445.2 1597.48 1439.4H1591.78C1589.58 1439.4 1588.48 1438.8 1588.48 1437.6C1588.48 1436.8 1588.98 1436.1 1589.98 1435.5C1591.18 1434.7 1592.78 1434.3 1594.78 1434.3H1599.28C1601.68 1429.1 1605.28 1422.1 1610.08 1413.3C1615.08 1404.3 1620.58 1394.5 1626.58 1383.9C1632.58 1373.3 1638.58 1363 1644.58 1353C1650.58 1342.8 1655.98 1333.8 1660.78 1326C1663.98 1320.4 1667.98 1315.1 1672.78 1310.1C1677.58 1305.1 1682.58 1301.2 1687.78 1298.4C1692.98 1295.6 1697.78 1294.6 1702.18 1295.4C1697.38 1302.4 1691.18 1311.5 1683.58 1322.7C1676.18 1333.7 1668.48 1345.6 1660.48 1358.4C1652.48 1371.2 1644.58 1384.2 1636.78 1397.4C1629.18 1410.6 1622.68 1422.9 1617.28 1434.3H1653.88C1654.88 1434.3 1655.38 1434.8 1655.38 1435.8C1655.38 1436.6 1654.98 1437.4 1654.18 1438.2C1653.58 1439 1652.78 1439.4 1651.78 1439.4H1614.58L1609.18 1450.5C1610.58 1454.5 1611.48 1459.3 1611.88 1464.9C1612.48 1470.3 1612.78 1476 1612.78 1482C1612.78 1491.2 1612.28 1500.5 1611.28 1509.9C1610.28 1519.1 1609.18 1526.8 1607.98 1533C1605.98 1543.6 1603.38 1554 1600.18 1564.2C1596.98 1574.6 1593.18 1583.9 1588.78 1592.1C1584.58 1600.5 1579.58 1607.2 1573.78 1612.2C1568.18 1617.2 1561.78 1619.7 1554.58 1619.7ZM1557.58 1614.6C1561.18 1614.6 1564.78 1612.5 1568.38 1608.3C1572.18 1604.1 1575.68 1598.9 1578.88 1592.7C1582.08 1586.7 1584.88 1580.7 1587.28 1574.7C1589.88 1568.7 1591.88 1563.9 1593.28 1560.3C1595.48 1554.1 1597.58 1546.4 1599.58 1537.2C1601.58 1528.2 1603.18 1518.6 1604.38 1508.4C1605.78 1498.2 1606.48 1488.5 1606.48 1479.3C1606.48 1475.7 1606.38 1472.2 1606.18 1468.8C1605.98 1465.4 1605.58 1462.3 1604.98 1459.5C1601.18 1467.3 1596.88 1476.5 1592.08 1487.1C1587.28 1497.9 1582.48 1509 1577.68 1520.4C1572.88 1532 1568.48 1543.3 1564.48 1554.3C1560.28 1565.5 1557.08 1575.5 1554.88 1584.3C1553.88 1588.1 1553.08 1591.6 1552.48 1594.8C1551.88 1598.2 1551.58 1601.3 1551.58 1604.1C1551.58 1607.1 1552.08 1609.5 1553.08 1611.3C1554.08 1613.3 1555.58 1614.4 1557.58 1614.6ZM1703.93 1515.9C1699.93 1515.9 1697.03 1514.6 1695.23 1512C1693.43 1509.4 1692.53 1505.9 1692.53 1501.5C1692.53 1496.3 1693.53 1490.1 1695.53 1482.9C1697.73 1475.5 1700.33 1468 1703.33 1460.4C1700.53 1464.8 1697.23 1469.6 1693.43 1474.8C1689.63 1480 1685.63 1484.9 1681.43 1489.5C1677.23 1494.1 1673.03 1497.9 1668.83 1500.9C1664.83 1503.9 1661.13 1505.4 1657.73 1505.4C1652.13 1505.4 1648.23 1503.5 1646.03 1499.7C1644.03 1495.9 1643.03 1491.5 1643.03 1486.5C1643.03 1483.3 1643.23 1480.2 1643.63 1477.2C1644.23 1474 1644.93 1471.2 1645.73 1468.8C1649.33 1458.6 1654.03 1447.9 1659.83 1436.7C1665.63 1425.3 1671.93 1414.4 1678.73 1404C1685.73 1393.6 1692.83 1384.6 1700.03 1377C1704.83 1372.2 1708.43 1369.8 1710.83 1369.8C1712.03 1369.8 1712.63 1370.5 1712.63 1371.9C1712.63 1373.3 1711.93 1375.3 1710.53 1377.9C1709.33 1380.5 1707.33 1383.5 1704.53 1386.9C1702.33 1389.5 1699.33 1394.3 1695.53 1401.3C1691.73 1408.1 1687.63 1415.9 1683.23 1424.7C1678.83 1433.3 1674.63 1441.9 1670.63 1450.5C1666.83 1459.1 1663.63 1466.6 1661.03 1473C1659.43 1476.8 1658.23 1480.2 1657.43 1483.2C1656.83 1486.2 1656.53 1488.7 1656.53 1490.7C1656.53 1495.5 1658.13 1497.9 1661.33 1497.9C1665.53 1497.9 1670.93 1494 1677.53 1486.2C1679.13 1484.2 1681.43 1481.2 1684.43 1477.2C1687.43 1473 1690.63 1468.5 1694.03 1463.7C1697.63 1458.7 1701.03 1453.9 1704.23 1449.3C1707.43 1444.7 1710.03 1440.9 1712.03 1437.9L1718.93 1425.3C1719.93 1423.3 1721.93 1421.7 1724.93 1420.5C1728.13 1419.1 1731.03 1418.4 1733.63 1418.4C1735.43 1418.4 1736.33 1419.3 1736.33 1421.1C1736.33 1423.3 1735.83 1425.6 1734.83 1428C1734.03 1430.2 1732.83 1432.6 1731.23 1435.2C1728.23 1440 1725.33 1445.7 1722.53 1452.3C1719.73 1458.9 1717.23 1465.3 1715.03 1471.5C1713.03 1477.7 1711.73 1482.6 1711.13 1486.2C1710.33 1489.6 1709.93 1493 1709.93 1496.4C1709.93 1497.2 1709.93 1498 1709.93 1498.8C1710.13 1499.6 1710.33 1500.3 1710.53 1500.9C1710.93 1503.5 1711.93 1504.8 1713.53 1504.8C1714.33 1504.8 1715.33 1504.5 1716.53 1503.9C1720.93 1501.7 1725.33 1498.6 1729.73 1494.6C1734.13 1490.4 1738.33 1486 1742.33 1481.4C1744.33 1479.2 1746.23 1477.1 1748.03 1475.1C1749.83 1473.1 1751.53 1471 1753.13 1468.8C1753.73 1468.2 1754.23 1467.9 1754.63 1467.9C1755.83 1467.9 1756.43 1468.7 1756.43 1470.3C1756.43 1471.5 1756.03 1472.5 1755.23 1473.3L1742.03 1489.2C1739.83 1491.8 1737.53 1494.4 1735.13 1497C1732.73 1499.4 1730.43 1501.7 1728.23 1503.9C1724.23 1507.7 1720.03 1510.7 1715.63 1512.9C1711.23 1514.9 1707.33 1515.9 1703.93 1515.9ZM1747.04 1567.8C1743.24 1567.8 1739.94 1566.2 1737.14 1563C1734.34 1559.8 1732.94 1554.8 1732.94 1548C1732.94 1544.2 1733.34 1540.3 1734.14 1536.3C1737.54 1517.5 1742.84 1497.7 1750.04 1476.9C1757.24 1456.1 1766.24 1435.5 1777.04 1415.1C1764.44 1419.3 1754.04 1421.4 1745.84 1421.4C1742.04 1421.4 1739.24 1421.1 1737.44 1420.5C1735.64 1419.7 1734.74 1418.9 1734.74 1418.1C1734.74 1416.9 1736.64 1416.4 1740.44 1416.6C1741.24 1416.8 1741.94 1416.9 1742.54 1416.9C1743.34 1416.9 1744.14 1416.9 1744.94 1416.9C1749.74 1416.9 1755.14 1416.2 1761.14 1414.8C1767.14 1413.2 1773.54 1411.1 1780.34 1408.5C1791.14 1388.7 1803.04 1370 1816.04 1352.4C1829.24 1334.6 1843.34 1318.8 1858.34 1305C1863.54 1300.4 1868.84 1296.8 1874.24 1294.2C1879.84 1291.4 1884.94 1290 1889.54 1290C1893.54 1290 1896.94 1291.1 1899.74 1293.3C1902.54 1295.5 1904.44 1299.2 1905.44 1304.4C1905.64 1305.2 1905.74 1306.1 1905.74 1307.1C1905.94 1308.1 1906.04 1309.1 1906.04 1310.1C1906.04 1313.9 1905.24 1318 1903.64 1322.4C1898.64 1335 1888.54 1347.7 1873.34 1360.5C1865.94 1366.9 1858.04 1372.9 1849.64 1378.5C1841.24 1384.1 1832.44 1389.4 1823.24 1394.4C1814.04 1399.4 1805.14 1403.7 1796.54 1407.3C1789.94 1418.7 1783.84 1430.3 1778.24 1442.1C1772.64 1453.9 1767.84 1465.5 1763.84 1476.9C1759.64 1488.5 1756.34 1499.7 1753.94 1510.5C1751.54 1521.1 1750.24 1531.1 1750.04 1540.5C1750.04 1549.3 1752.24 1553.7 1756.64 1553.7C1759.24 1553.7 1762.54 1552.7 1766.54 1550.7C1772.74 1547.1 1778.04 1543.4 1782.44 1539.6C1786.84 1535.8 1791.34 1531.3 1795.94 1526.1C1798.14 1523.5 1801.24 1519.7 1805.24 1514.7C1809.44 1509.5 1813.94 1504 1818.74 1498.2C1823.54 1492.2 1828.14 1486.7 1832.54 1481.7C1836.54 1476.9 1840.54 1472.3 1844.54 1467.9C1845.14 1467.3 1845.64 1467 1846.04 1467C1847.24 1467 1847.84 1467.8 1847.84 1469.4C1847.84 1470.4 1847.44 1471.4 1846.64 1472.4C1844.44 1475.2 1842.04 1478.1 1839.44 1481.1C1837.04 1484.1 1834.74 1486.9 1832.54 1489.5C1831.34 1490.7 1829.14 1493.3 1825.94 1497.3C1822.74 1501.1 1818.94 1505.7 1814.54 1511.1C1810.14 1516.3 1805.64 1521.6 1801.04 1527C1796.44 1532.6 1792.14 1537.7 1788.14 1542.3C1784.34 1546.9 1781.24 1550.4 1778.84 1552.8C1774.44 1557 1769.64 1560.5 1764.44 1563.3C1759.44 1566.3 1753.64 1567.8 1747.04 1567.8ZM1801.34 1399.2C1811.14 1394.4 1821.14 1388.7 1831.34 1382.1C1841.54 1375.3 1851.24 1368.1 1860.44 1360.5C1869.64 1352.7 1877.54 1344.8 1884.14 1336.8C1890.74 1328.8 1895.34 1321 1897.94 1313.4C1898.74 1311 1899.14 1308.6 1899.14 1306.2C1899.14 1300 1896.64 1296.9 1891.64 1296.9C1888.44 1296.9 1885.14 1298.3 1881.74 1301.1C1868.34 1311.7 1854.64 1325.6 1840.64 1342.8C1826.64 1360 1813.54 1378.8 1801.34 1399.2Z" fill="#E8C302"/>
<path d="M1196 1175V1089.8L1129.4 969.2H1158.5L1210.7 1064.6H1211.9L1263.2 969.2H1288.7L1222.4 1089.8V1175H1196ZM1386.76 1178.6C1361.56 1178.6 1341.76 1169.8 1327.36 1152.2C1312.96 1134.4 1305.76 1107.7 1305.76 1072.1C1305.76 1036.3 1312.96 1009.6 1327.36 992C1341.76 974.4 1361.56 965.6 1386.76 965.6C1411.96 965.6 1431.76 974.4 1446.16 992C1460.56 1009.6 1467.76 1036.3 1467.76 1072.1C1467.76 1107.7 1460.56 1134.4 1446.16 1152.2C1431.76 1169.8 1411.96 1178.6 1386.76 1178.6ZM1386.76 1154.3C1403.36 1154.3 1416.36 1148.1 1425.76 1135.7C1435.36 1123.3 1440.16 1104.6 1440.16 1079.6V1064.6C1440.16 1039.6 1435.36 1020.9 1425.76 1008.5C1416.36 996.1 1403.36 989.9 1386.76 989.9C1370.36 989.9 1357.36 996.1 1347.76 1008.5C1338.16 1020.9 1333.36 1039.6 1333.36 1064.6V1079.6C1333.36 1104.6 1338.16 1123.3 1347.76 1135.7C1357.36 1148.1 1370.36 1154.3 1386.76 1154.3ZM1571.17 1178.6C1549.97 1178.6 1533.37 1172.6 1521.37 1160.6C1509.37 1148.6 1503.37 1131.1 1503.37 1108.1V969.2H1529.77V1109.6C1529.77 1124.2 1533.47 1135.3 1540.87 1142.9C1548.27 1150.5 1558.37 1154.3 1571.17 1154.3C1584.17 1154.3 1594.27 1150.5 1601.47 1142.9C1608.87 1135.3 1612.57 1124.2 1612.57 1109.6V969.2H1638.97V1108.1C1638.97 1131.1 1632.97 1148.6 1620.97 1160.6C1608.97 1172.6 1592.37 1178.6 1571.17 1178.6Z" fill="#76B784"/>
<ellipse cx="436.5" cy="614.5" rx="84.5" ry="75.5" fill="#E8C302"/>
<path d="M555 608.156C555 646.626 503.357 696 452.786 696C402.216 696 352.911 649.094 358.423 603.25C363.934 557.406 402.216 528 452.786 528C503.357 528 555 569.686 555 608.156Z" fill="white"/>
<path d="M832.985 720.78C801.592 775.676 644.055 877.307 599.107 851.025C533.791 825.319 602.276 668.677 661.592 603.554C734.467 531.577 820.239 540.261 865.186 566.544C910.133 592.826 887.218 655.658 832.985 720.78Z" fill="#E8C302"/>
<path d="M817.748 725.23C777.073 778.356 641.001 871.621 602.27 848.973C545.482 827.705 612.448 678.819 667.597 615.646C735.027 545.521 810.613 550.072 849.344 572.72C888.076 595.368 868.591 665.249 817.748 725.23Z" fill="white"/>
<path d="M879.469 915.76C809.984 929.47 626.09 906.665 605.912 854.53C569.038 788.915 718.745 708.527 805.74 696.228C907.763 687.643 971.35 753.433 991.527 805.568C1011.7 857.703 961.636 899.547 879.469 915.76Z" fill="#E8C302"/>
<path d="M872.28 902.208C807.878 918.494 630.118 892.41 614.614 852.351C584.413 802.674 718.446 721.9 811.678 715.252C907.215 701.87 955.011 757.453 970.515 797.512C982.85 831.786 973.905 883.199 872.28 902.208Z" fill="white"/>
<path d="M852 703C758.872 768.961 707.324 793.281 617 806" stroke="#E8C302" stroke-width="3"/>
<ellipse rx="84.7508" ry="75.3939" transform="matrix(-0.993346 -0.115168 0.112665 -0.993633 248.514 658.422)" fill="#E8C302"/>
<path d="M130.027 650.276C134.359 612.068 182.717 576.071 232.855 581.884C266.75 585.312 324.369 600.735 324.369 677.744C324.369 754.754 272.476 747.447 222.339 741.634C172.201 735.821 125.695 688.483 130.027 650.276Z" fill="white"/>
<ellipse cx="379" cy="716" rx="78" ry="74" fill="#E8C302"/>
<path d="M465 708.167C465 739.187 423.937 779 383.727 779C343.517 779 316 739.187 316 708.167C316 677.147 343.517 652 383.727 652C423.937 652 465 677.147 465 708.167Z" fill="white"/>
<path d="M639.343 952.778L595.535 941.858L617.897 912.636L639.343 952.778Z" fill="#E8C302"/>
<path d="M619.649 940.641C567.742 961.206 500.628 979.472 428.14 933.554C385.384 906.47 369.253 825.105 406.108 781.032C480.678 745.043 510.119 736.474 576.215 781.032C605.933 801.065 645.07 858.381 619.649 940.641Z" fill="#E8C302"/>
<path d="M598.247 922.644C547.322 950.359 437.653 937.042 411.728 888.369C378.868 826.676 426.23 747.909 458.259 724.125C490.288 700.34 506.73 708.427 598.247 818.105C598.247 818.105 633.701 879.211 598.247 922.644Z" fill="white"/>
<path d="M552.797 813.907C574.936 847.494 521.007 863.929 482.514 889.872C444.021 915.816 426.178 920.258 413.402 907.856C391.263 874.269 387.258 841.302 443.014 800.066C481.507 774.123 530.659 780.32 552.797 813.907Z" fill="#E8C302"/>
<path d="M577.724 857.839C582.498 891.299 524.976 901.16 478.656 907.916C454.547 930.963 415.752 910.74 410.979 877.281C406.206 843.821 452.708 793.074 499.028 786.317C535.931 780.934 572.951 824.38 577.724 857.839Z" fill="#929294"/>
<path d="M1072.3 916.2C1064.5 916.2 1058.5 913 1054.3 906.6C1050.1 900.4 1048 891.5 1048 879.9C1048 877.9 1048.1 875.9 1048.3 873.9C1048.3 871.9 1048.4 869.8 1048.6 867.6C1049.8 857.8 1052.8 847.1 1057.6 835.5C1062.6 823.9 1070.2 811.5 1080.4 798.3C1087.2 789.5 1094.6 782.9 1102.6 778.5C1110.6 774.1 1118.3 771.9 1125.7 771.9C1130.9 771.9 1135.5 772.9 1139.5 774.9C1144.3 777.5 1146.7 782.2 1146.7 789C1146.7 794 1144.9 799.6 1141.3 805.8C1137.7 811.8 1131.6 817.6 1123 823.2C1111.6 830.4 1102.1 835.2 1094.5 837.6C1086.9 840 1080.8 841.3 1076.2 841.5C1074.6 843.7 1073 847.2 1071.4 852C1069.8 856.6 1068.4 861.5 1067.2 866.7C1066.2 871.7 1065.5 876.2 1065.1 880.2C1065.1 881 1065 881.8 1064.8 882.6C1064.8 883.6 1064.8 884.6 1064.8 885.6C1064.8 891.6 1065.8 896.7 1067.8 900.9C1070 905.3 1073.8 907.5 1079.2 907.5C1084 907.5 1089.4 905.7 1095.4 902.1C1101.4 898.7 1107.3 894.5 1113.1 889.5C1119.1 884.7 1124.3 880 1128.7 875.4C1133.3 871 1136.5 867.7 1138.3 865.5L1160.5 839.7L1172.5 825.9C1173.1 825.3 1173.6 825 1174 825C1175.2 825 1175.8 825.8 1175.8 827.4C1175.8 828 1175.3 829 1174.3 830.4C1172.3 833.2 1170 836.1 1167.4 839.1C1165 842.1 1162.7 844.9 1160.5 847.5C1157.7 850.7 1154.2 854.8 1150 859.8C1146 864.8 1141.7 870 1137.1 875.4C1132.7 880.8 1128.4 885.5 1124.2 889.5C1116.6 896.9 1108.4 903.2 1099.6 908.4C1091 913.6 1081.9 916.2 1072.3 916.2ZM1078.9 836.7C1081.7 836.5 1085.2 835.4 1089.4 833.4C1093.6 831.4 1098 829 1102.6 826.2C1107.2 823.4 1111.4 820.6 1115.2 817.8C1119.2 814.8 1122.4 812.3 1124.8 810.3C1129.4 806.7 1132.8 802.7 1135 798.3C1137.2 793.9 1138.3 790.1 1138.3 786.9C1138.3 784.7 1137.7 782.8 1136.5 781.2C1135.5 779.6 1133.9 778.8 1131.7 778.8C1127.5 778.8 1122.9 780.9 1117.9 785.1C1113.1 789.1 1108.2 794.3 1103.2 800.7C1098.4 806.9 1093.8 813.3 1089.4 819.9C1085.2 826.3 1081.7 831.9 1078.9 836.7ZM1181.87 916.2C1174.07 916.2 1168.07 913 1163.87 906.6C1159.67 900.4 1157.57 891.5 1157.57 879.9C1157.57 877.9 1157.67 875.9 1157.87 873.9C1157.87 871.9 1157.97 869.8 1158.17 867.6C1159.37 857.8 1162.37 847.1 1167.17 835.5C1172.17 823.9 1179.77 811.5 1189.97 798.3C1196.77 789.5 1204.17 782.9 1212.17 778.5C1220.17 774.1 1227.87 771.9 1235.27 771.9C1240.47 771.9 1245.07 772.9 1249.07 774.9C1253.87 777.5 1256.27 782.2 1256.27 789C1256.27 794 1254.47 799.6 1250.87 805.8C1247.27 811.8 1241.17 817.6 1232.57 823.2C1221.17 830.4 1211.67 835.2 1204.07 837.6C1196.47 840 1190.37 841.3 1185.77 841.5C1184.17 843.7 1182.57 847.2 1180.97 852C1179.37 856.6 1177.97 861.5 1176.77 866.7C1175.77 871.7 1175.07 876.2 1174.67 880.2C1174.67 881 1174.57 881.8 1174.37 882.6C1174.37 883.6 1174.37 884.6 1174.37 885.6C1174.37 891.6 1175.37 896.7 1177.37 900.9C1179.57 905.3 1183.37 907.5 1188.77 907.5C1193.57 907.5 1198.97 905.7 1204.97 902.1C1210.97 898.7 1216.87 894.5 1222.67 889.5C1228.67 884.7 1233.87 880 1238.27 875.4C1242.87 871 1246.07 867.7 1247.87 865.5L1270.07 839.7L1282.07 825.9C1282.67 825.3 1283.17 825 1283.57 825C1284.77 825 1285.37 825.8 1285.37 827.4C1285.37 828 1284.87 829 1283.87 830.4C1281.87 833.2 1279.57 836.1 1276.97 839.1C1274.57 842.1 1272.27 844.9 1270.07 847.5C1267.27 850.7 1263.77 854.8 1259.57 859.8C1255.57 864.8 1251.27 870 1246.67 875.4C1242.27 880.8 1237.97 885.5 1233.77 889.5C1226.17 896.9 1217.97 903.2 1209.17 908.4C1200.57 913.6 1191.47 916.2 1181.87 916.2ZM1188.47 836.7C1191.27 836.5 1194.77 835.4 1198.97 833.4C1203.17 831.4 1207.57 829 1212.17 826.2C1216.77 823.4 1220.97 820.6 1224.77 817.8C1228.77 814.8 1231.97 812.3 1234.37 810.3C1238.97 806.7 1242.37 802.7 1244.57 798.3C1246.77 793.9 1247.87 790.1 1247.87 786.9C1247.87 784.7 1247.27 782.8 1246.07 781.2C1245.07 779.6 1243.47 778.8 1241.27 778.8C1237.07 778.8 1232.47 780.9 1227.47 785.1C1222.67 789.1 1217.77 794.3 1212.77 800.7C1207.97 806.9 1203.37 813.3 1198.97 819.9C1194.77 826.3 1191.27 831.9 1188.47 836.7Z" fill="#E8C302"/>
<path d="M580.333 849.066C585.043 882.076 525.739 899.894 479.419 906.651C456.564 926.346 424.364 914.35 417.585 895.499C406.235 850.222 450.714 801.964 509.102 785.82C524.355 781.602 575.624 816.055 580.333 849.066Z" fill="white"/>
<path d="M549.772 837.22C569.682 859.928 530.038 885.36 503.022 915.194C476.006 945.028 462.8 952.624 451.939 945.257C432.03 922.548 426.004 896.34 464.806 850.121C491.822 820.287 529.863 814.511 549.772 837.22Z" fill="#E8C302"/>
<path d="M580.268 887.892C584.386 910.252 574.982 922.115 541.303 931.488C489.464 945.914 463.787 920.722 462.537 917.162C444.701 866.366 513.079 815.712 541.303 821.809C614.315 811.96 597.452 868.01 580.268 887.892Z" fill="white"/>
<path d="M556.555 858.702C579.195 862.512 572.744 894.839 568.174 923.932C563.605 953.024 556.517 958.855 543.16 957.375C495.245 952.067 500.628 970.071 500.628 934.915C500.628 890.358 533.916 854.892 556.555 858.702Z" fill="#E8C302"/>
<path d="M509.102 878.362C490.46 888.644 490.46 893.785 485.375 917.78C476.901 929.774 480.291 933.202 461.648 917.78C449.785 874.934 487.07 835.519 522.66 823.523C527.744 837.232 504.329 844.903 509.102 878.362Z" fill="#929294"/>
<path d="M515.881 876.648C488.27 891.409 498.689 933.202 490.459 933.202C487.07 933.202 473.512 928.061 470.122 924.633C459.258 881.324 473.934 851.403 522.66 823.522C537.277 819.484 527.744 849.228 515.881 876.648Z" fill="white"/>
<path d="M559.945 890.358C541.303 900.64 559.945 910.921 554.861 934.915C546.387 936.629 545.811 936.589 531.134 934.915C519.271 905.781 532.829 880.076 561.64 859.51C566.724 873.219 555.172 856.899 559.945 890.358Z" fill="#929294"/>
<path d="M587.638 891.387C560.027 906.148 580.282 931.488 563.334 934.915C558.079 935.978 539.296 937.458 537.913 934.915C519.27 900.64 554.861 859.36 566.724 856.083C581.341 852.045 599.501 863.968 587.638 891.387Z" fill="white"/>
<path d="M651.463 960.621C892.696 1038.56 1167.27 1367.83 1016.26 1556.82" stroke="#E8C302" stroke-width="3" stroke-dasharray="6 6"/>
<path d="M761.293 1482.79C745.603 1361.98 788.75 1254.83 1210.42 1305.48" stroke="#E8C302" stroke-width="3" stroke-dasharray="6 6"/>
<path d="M1210.42 1305.48C1367.32 1323.02 1802.72 1213.91 1816.45 962.57" stroke="#E8C302" stroke-width="3" stroke-dasharray="6 6"/>
<path d="M1016.26 1556.82C992.72 1586.05 786.789 1646.45 761.292 1482.78" stroke="#E8C302" stroke-width="3" stroke-dasharray="6 6"/>
</g>
<defs>
<filter id="filter0_d_306_3" x="0" y="0" width="2140" height="2140" filterUnits="userSpaceOnUse" color-interpolation-filters="sRGB">
<feFlood flood-opacity="0" result="BackgroundImageFix"/>
<feColorMatrix in="SourceAlpha" type="matrix" values="0 0 0 0 0 0 0 0 0 0 0 0 0 0 0 0 0 0 127 0" result="hardAlpha"/>
<feOffset/>
<feGaussianBlur stdDeviation="10"/>
<feComposite in2="hardAlpha" operator="out"/>
<feColorMatrix type="matrix" values="0 0 0 0 0 0 0 0 0 0 0 0 0 0 0 0 0 0 0.5 0"/>
<feBlend mode="normal" in2="BackgroundImageFix" result="effect1_dropShadow_306_3"/>
<feBlend mode="normal" in="SourceGraphic" in2="effect1_dropShadow_306_3" result="shape"/>
</filter>
</defs>
</svg>
